<svg data-v-d3f97b9e="" xmlns="http://www.w3.org/2000/svg" viewBox="0 0 39.41830601017111 60"><!----><!----><!----><g data-v-d3f97b9e="" id="722f7494-0ec0-4495-a080-8908d0c253a8" fill="black" transform="matrix(5.132591724456826,0,0,5.132591724456826,-6.621042958488022,-21.55688426375449)"><path d="M3.37 4.70L3.37 4.70Q3.51 4.96 3.56 5.19L3.56 5.19L3.56 5.19Q3.60 5.42 3.60 5.98L3.60 5.98L3.60 5.98Q3.60 6.54 3.25 8.93L3.25 8.93L3.07 10.19L3.07 10.19Q7.36 6.68 8.39 4.24L8.39 4.24L8.39 4.24Q8.71 4.89 8.71 5.69L8.71 5.69L8.71 5.69Q8.71 6.50 7.88 7.36L7.88 7.36L7.88 7.36Q7.06 8.23 5.45 9.38L5.45 9.38L5.45 9.38Q6.23 11.83 7 13.15L7 13.15L7 13.15Q7.77 14.48 8.97 15.75L8.97 15.75L8.97 15.75Q8.69 15.89 8.23 15.89L8.23 15.89L8.23 15.89Q7.77 15.89 7.23 15.55L7.23 15.55L7.23 15.55Q6.69 15.22 6.28 14.71L6.28 14.71L6.28 14.71Q5.87 14.21 5.45 13.41L5.45 13.41L5.45 13.41Q4.80 12.21 4.12 10.32L4.12 10.32L4.12 10.32Q4.05 10.37 3.60 10.68L3.60 10.68L3.60 10.68Q3.16 10.98 2.94 11.14L2.94 11.14L2.94 11.14Q2.67 13.17 2.67 14.29L2.67 14.29L2.67 14.29Q2.67 15.40 2.87 15.86L2.87 15.86L2.87 15.86Q2.00 15.55 1.65 15.03L1.65 15.03L1.65 15.03Q1.29 14.50 1.29 13.80L1.29 13.80L1.29 13.80Q1.29 13.09 1.58 10.92L1.58 10.92L1.58 10.92Q2.10 7.32 2.10 5.35L2.10 5.35L2.10 5.35Q2.10 4.93 2.04 4.20L2.04 4.20L2.04 4.20Q3.11 4.26 3.37 4.70L3.37 4.70Z"></path></g><!----><!----></svg>