<svg data-v-29081953="" xmlns="http://www.w3.org/2000/svg" viewBox="0 0 300 300"><!----><defs data-v-29081953=""><!----></defs><rect data-v-29081953="" fill="#231F20" x="0" y="0" width="300px" height="300px" class="logo-background-square"></rect><defs data-v-29081953=""><!----></defs><g data-v-29081953="" id="106b912a-3ab5-4ae2-a9bd-53241ff990ed" fill="#FFFFFF" transform="matrix(8.502939650451985,0,0,8.502939650451985,177.30890536144486,75.35127538177245)"><path d="M2.69 4.26L2.69 4.26L2.69 4.26Q2.67 4.33 2.65 4.77L2.65 4.77L2.65 4.77Q2.63 5.21 2.59 5.91L2.59 5.91L2.59 5.91Q2.56 6.68 2.50 7.28L2.50 7.28L2.50 7.28Q2.43 7.88 2.39 8.36L2.39 8.36L2.39 8.36Q2.66 8.18 2.99 7.86L2.99 7.86L2.99 7.86Q3.32 7.55 3.66 7.19L3.66 7.19L3.66 7.19Q4.01 6.82 4.34 6.44L4.34 6.44L4.34 6.44Q4.68 6.06 4.96 5.72L4.96 5.72L4.96 5.72Q5.24 5.39 5.45 5.13L5.45 5.13L5.45 5.13Q5.65 4.88 5.73 4.78L5.73 4.78L5.73 4.78Q5.88 4.59 6.05 4.42L6.05 4.42L6.05 4.42Q6.23 4.25 6.38 4.12L6.38 4.12L6.38 4.12Q6.54 3.99 6.68 3.90L6.68 3.90L6.68 3.90Q6.81 3.81 6.88 3.79L6.88 3.79L6.88 3.79Q6.92 3.77 6.96 3.78L6.96 3.78L6.96 3.78Q6.99 3.79 7.02 3.81L7.02 3.81L7.02 3.81Q7.04 3.83 7.04 3.90L7.04 3.90L7.04 3.90Q7.09 3.93 7.07 3.95L7.07 3.95L7.07 3.95Q7.05 3.97 7.07 3.99L7.07 3.99L7.07 3.99Q7.09 4.02 7.11 4.05L7.11 4.05L7.11 4.05Q7.13 4.07 7.10 4.14L7.10 4.14L7.10 4.14Q7.04 4.26 6.98 4.35L6.98 4.35L6.98 4.35Q6.92 4.45 6.81 4.59L6.81 4.59L6.81 4.59Q6.70 4.72 6.51 4.94L6.51 4.94L6.51 4.94Q6.32 5.15 6.01 5.50L6.01 5.50L6.01 5.50Q5.70 5.82 5.30 6.30L5.30 6.30L5.30 6.30Q4.89 6.77 4.43 7.27L4.43 7.27L4.43 7.27Q3.97 7.78 3.47 8.27L3.47 8.27L3.47 8.27Q2.96 8.76 2.45 9.13L2.45 9.13L2.45 9.13Q2.65 9.17 2.90 9.26L2.90 9.26L2.90 9.26Q3.14 9.34 3.44 9.48L3.44 9.48L3.44 9.48Q3.73 9.63 4.06 9.84L4.06 9.84L4.06 9.84Q4.39 10.05 4.76 10.35L4.76 10.35L4.76 10.35Q5.18 10.71 5.58 11.06L5.58 11.06L5.58 11.06Q5.99 11.42 6.40 11.70L6.40 11.70L6.40 11.70Q6.81 11.98 7.24 12.16L7.24 12.16L7.24 12.16Q7.67 12.34 8.15 12.34L8.15 12.34L8.15 12.34Q8.46 12.34 8.81 12.25L8.81 12.25L8.81 12.25Q9.15 12.16 9.54 11.95L9.54 11.95L9.54 11.95Q9.63 11.90 9.67 11.89L9.67 11.89L9.67 11.89Q9.71 11.89 9.72 11.90L9.72 11.90L9.72 11.90Q9.73 11.92 9.72 11.95L9.72 11.95L9.72 11.95Q9.71 11.98 9.69 12.00L9.69 12.00L9.69 12.00Q9.67 12.02 9.64 12.04L9.64 12.04L9.64 12.04Q9.60 12.07 9.56 12.10L9.56 12.10L9.56 12.10Q9.52 12.13 9.47 12.16L9.47 12.16L9.47 12.16Q9.43 12.20 9.41 12.24L9.41 12.24L9.41 12.24Q9.39 12.26 9.41 12.26L9.41 12.26L9.41 12.26Q9.43 12.26 9.44 12.27L9.44 12.27L9.44 12.27Q9.46 12.28 9.45 12.31L9.45 12.31L9.45 12.31Q9.45 12.33 9.37 12.38L9.37 12.38L9.37 12.38Q9.32 12.41 9.30 12.45L9.30 12.45L9.30 12.45Q9.27 12.50 9.25 12.54L9.25 12.54L9.25 12.54Q9.22 12.58 9.19 12.63L9.19 12.63L9.19 12.63Q9.15 12.67 9.10 12.70L9.10 12.70L9.10 12.70Q8.98 12.77 8.91 12.88L8.91 12.88L8.91 12.88Q8.85 12.98 8.80 13.02L8.80 13.02L8.80 13.02Q8.75 13.08 8.57 13.19L8.57 13.19L8.57 13.19Q8.38 13.30 8.12 13.40L8.12 13.40L8.12 13.40Q7.87 13.50 7.56 13.56L7.56 13.56L7.56 13.56Q7.25 13.62 6.95 13.57L6.95 13.57L6.95 13.57Q6.48 13.49 6.07 13.21L6.07 13.21L6.07 13.21Q5.65 12.93 5.27 12.55L5.27 12.55L5.27 12.55Q4.88 12.17 4.52 11.74L4.52 11.74L4.52 11.74Q4.16 11.30 3.80 10.91L3.80 10.91L3.80 10.91Q3.45 10.52 3.09 10.22L3.09 10.22L3.09 10.22Q2.73 9.93 2.35 9.82L2.35 9.82L2.35 9.82Q2.35 10.09 2.36 10.44L2.36 10.44L2.36 10.44Q2.37 10.79 2.38 11.16L2.38 11.16L2.38 11.16Q2.39 11.53 2.40 11.89L2.40 11.89L2.40 11.89Q2.41 12.25 2.42 12.54L2.42 12.54L2.42 12.54Q2.43 12.84 2.44 13.04L2.44 13.04L2.44 13.04Q2.45 13.23 2.46 13.28L2.46 13.28L2.46 13.28Q2.49 13.45 2.46 13.48L2.46 13.48L2.46 13.48Q2.43 13.52 2.35 13.54L2.35 13.54L2.35 13.54Q2.32 13.56 2.28 13.54L2.28 13.54L2.28 13.54Q2.24 13.52 2.20 13.56L2.20 13.56L2.20 13.56Q2.18 13.58 2.17 13.60L2.17 13.60L2.17 13.60Q2.17 13.63 2.15 13.66L2.15 13.66L2.15 13.66Q2.14 13.69 2.11 13.72L2.11 13.72L2.11 13.72Q2.08 13.75 2.00 13.77L2.00 13.77L2.00 13.77Q1.97 13.78 1.93 13.78L1.93 13.78L1.93 13.78Q1.89 13.78 1.85 13.78L1.85 13.78L1.85 13.78Q1.79 13.79 1.71 13.74L1.71 13.74L1.71 13.74Q1.62 13.69 1.55 13.64L1.55 13.64L1.55 13.64Q1.52 13.60 1.48 13.55L1.48 13.55L1.48 13.55Q1.45 13.49 1.42 13.43L1.42 13.43L1.42 13.43Q1.38 13.39 1.34 13.37L1.34 13.37L1.34 13.37Q1.29 13.35 1.27 13.26L1.27 13.26L1.27 13.26Q1.20 12.95 1.17 12.48L1.17 12.48L1.17 12.48Q1.15 12.02 1.15 11.53L1.15 11.53L1.15 11.53Q1.15 11.24 1.16 10.95L1.16 10.95L1.16 10.95Q1.16 10.67 1.17 10.41L1.17 10.41L1.17 10.41Q1.18 10.16 1.19 9.94L1.19 9.94L1.19 9.94Q1.20 9.72 1.22 9.57L1.22 9.57L0.92 9.54L0.92 9.54Q0.80 9.54 0.75 9.52L0.75 9.52L0.75 9.52Q0.69 9.51 0.66 9.48L0.66 9.48L0.66 9.48Q0.63 9.46 0.60 9.43L0.60 9.43L0.60 9.43Q0.57 9.39 0.52 9.36L0.52 9.36L0.52 9.36Q0.41 9.28 0.39 9.21L0.39 9.21L0.39 9.21Q0.37 9.14 0.52 9.02L0.52 9.02L0.52 9.02Q0.62 8.93 0.80 8.90L0.80 8.90L0.80 8.90Q0.98 8.86 1.27 8.78L1.27 8.78L1.27 8.78Q1.29 8.46 1.30 8.05L1.30 8.05L1.30 8.05Q1.32 7.64 1.35 7.19L1.35 7.19L1.35 7.19Q1.37 6.75 1.40 6.31L1.40 6.31L1.40 6.31Q1.44 5.86 1.47 5.46L1.47 5.46L1.47 5.46Q1.50 5.05 1.54 4.72L1.54 4.72L1.54 4.72Q1.59 4.38 1.63 4.16L1.63 4.16L1.63 4.16Q1.64 4.07 1.66 4.03L1.66 4.03L1.66 4.03Q1.69 3.99 1.72 3.96L1.72 3.96L1.72 3.96Q1.76 3.96 1.80 3.99L1.80 3.99L1.80 3.99Q1.83 4.03 1.89 3.99L1.89 3.99L1.89 3.99Q1.93 3.97 1.96 3.95L1.96 3.95L1.96 3.95Q1.98 3.94 2.00 3.93L2.00 3.93L2.00 3.93Q2.02 3.93 2.03 3.95L2.03 3.95L2.03 3.95Q2.04 3.97 2.07 4.03L2.07 4.03L2.07 4.03Q2.08 4.03 2.09 4.03L2.09 4.03L2.09 4.03Q2.10 4.02 2.11 4.01L2.11 4.01L2.14 3.98L2.14 3.98Q2.19 3.96 2.26 3.95L2.26 3.95L2.26 3.95Q2.34 3.94 2.35 3.99L2.35 3.99L2.35 3.99Q2.36 4.04 2.37 4.03L2.37 4.03L2.37 4.03Q2.39 4.02 2.41 3.99L2.41 3.99L2.41 3.99Q2.43 3.96 2.47 3.94L2.47 3.94L2.47 3.94Q2.50 3.91 2.55 3.92L2.55 3.92L2.55 3.92Q2.65 3.96 2.69 4.04L2.69 4.04L2.69 4.04Q2.74 4.12 2.69 4.26Z"></path></g><defs data-v-29081953=""><!----></defs><g data-v-29081953="" id="0db8e887-97ac-48ba-a539-fd6a4452f92a" stroke="none" fill="#AD974F" transform="matrix(1.4178494577019418,0,0,1.4178494577019418,32.68389701460464,81.23217569554123)"><circle cx="50.159" cy="48.501" r="28.063"></circle><path d="M11.728 41.943v13.115L5.16 48.523zM88.591 55.06V41.945l6.568 6.535zM18.347 71.039l9.273 9.273-9.266.024zM81.972 25.964l-9.274-9.274 9.267-.023zM72.697 80.313l9.274-9.273.023 9.266zM27.622 16.688l-9.273 9.274-.025-9.267zM56.718 10.07H43.604l6.534-6.569zM43.601 86.933h13.115l-6.535 6.569z"></path></g><!----></svg>